<svg xmlns="http://www.w3.org/2000/svg" version="1.1" xmlns:xlink="http://www.w3.org/1999/xlink" xmlns:svgjs="http://svgjs.dev/svgjs" width="1440" height="560" preserveAspectRatio="none" viewBox="0 0 1440 560"><g mask="url(&quot;#SvgjsMask1005&quot;)" fill="none"><path d="M59.75 -67.19L124.7 -29.69L124.7 45.31L59.75 82.81L-5.2 45.31L-5.2 -29.69zM124.7 270.31L189.66 307.81L189.66 382.81L124.7 420.31L59.75 382.81L59.75 307.81zM59.75 382.81L124.7 420.31L124.7 495.31L59.75 532.81L-5.2 495.31L-5.2 420.31zM189.66 -67.19L254.61 -29.69L254.61 45.31L189.66 82.81L124.7 45.31L124.7 -29.69zM189.66 157.81L254.61 195.31L254.61 270.31L189.66 307.81L124.7 270.31L124.7 195.31zM189.66 382.81L254.61 420.31L254.61 495.31L189.66 532.81L124.7 495.31L124.7 420.31zM384.52 270.31L449.47 307.81L449.47 382.81L384.52 420.31L319.56 382.81L319.56 307.81zM319.56 382.81L384.52 420.31L384.52 495.31L319.56 532.81L254.61 495.31L254.61 420.31zM384.52 495.31L449.47 532.81L449.47 607.81L384.52 645.31L319.56 607.81L319.56 532.81zM514.43 45.31L579.38 82.81L579.38 157.81L514.43 195.31L449.47 157.81L449.47 82.81zM449.47 157.81L514.43 195.31L514.43 270.31L449.47 307.81L384.52 270.31L384.52 195.31zM514.43 270.31L579.38 307.81L579.38 382.81L514.43 420.31L449.47 382.81L449.47 307.81zM449.47 382.81L514.43 420.31L514.43 495.31L449.47 532.81L384.52 495.31L384.52 420.31zM644.33 45.31L709.29 82.81L709.29 157.81L644.33 195.31L579.38 157.81L579.38 82.81zM579.38 157.81L644.33 195.31L644.33 270.31L579.38 307.81L514.43 270.31L514.43 195.31zM644.33 270.31L709.29 307.81L709.29 382.81L644.33 420.31L579.38 382.81L579.38 307.81zM579.38 382.81L644.33 420.31L644.33 495.31L579.38 532.81L514.43 495.31L514.43 420.31zM644.33 495.31L709.29 532.81L709.29 607.81L644.33 645.31L579.38 607.81L579.38 532.81zM709.29 -67.19L774.24 -29.69L774.24 45.31L709.29 82.81L644.33 45.31L644.33 -29.69zM774.24 45.31L839.2 82.81L839.2 157.81L774.24 195.31L709.29 157.81L709.29 82.81zM709.29 382.81L774.24 420.31L774.24 495.31L709.29 532.81L644.33 495.31L644.33 420.31zM774.24 495.31L839.2 532.81L839.2 607.81L774.24 645.31L709.29 607.81L709.29 532.81zM839.19 -67.19L904.15 -29.69L904.15 45.31L839.19 82.81L774.24 45.31L774.24 -29.69zM904.15 45.31L969.1 82.81L969.1 157.81L904.15 195.31L839.19 157.81L839.19 82.81zM969.1 -67.19L1034.06 -29.69L1034.06 45.31L969.1 82.81L904.15 45.31L904.15 -29.69zM969.1 157.81L1034.06 195.31L1034.06 270.31L969.1 307.81L904.15 270.31L904.15 195.31zM1034.06 270.31L1099.01 307.81L1099.01 382.81L1034.06 420.31L969.1 382.81L969.1 307.81zM969.1 382.81L1034.06 420.31L1034.06 495.31L969.1 532.81L904.15 495.31L904.15 420.31zM1099.01 -67.19L1163.96 -29.69L1163.96 45.31L1099.01 82.81L1034.06 45.31L1034.06 -29.69zM1099.01 157.81L1163.96 195.31L1163.96 270.31L1099.01 307.81L1034.06 270.31L1034.06 195.31zM1099.01 382.81L1163.96 420.31L1163.96 495.31L1099.01 532.81L1034.06 495.31L1034.06 420.31zM1228.92 -67.19L1293.87 -29.69L1293.87 45.31L1228.92 82.81L1163.96 45.31L1163.96 -29.69zM1423.78 45.31L1488.73 82.81L1488.73 157.81L1423.78 195.31L1358.83 157.81L1358.83 82.81zM1488.73 157.81L1553.69 195.31L1553.69 270.31L1488.73 307.81L1423.78 270.31L1423.78 195.31zM1488.73 382.81L1553.69 420.31L1553.69 495.31L1488.73 532.81L1423.78 495.31L1423.78 420.31zM1553.69 495.31L1618.64 532.81L1618.64 607.81L1553.69 645.31L1488.73 607.81L1488.73 532.81z" stroke="rgba(0, 203, 255, 0.36)" stroke-width="2"></path><path d="M52.25 -67.19 a7.5 7.5 0 1 0 15 0 a7.5 7.5 0 1 0 -15 0zM117.2 -29.69 a7.5 7.5 0 1 0 15 0 a7.5 7.5 0 1 0 -15 0zM117.2 45.31 a7.5 7.5 0 1 0 15 0 a7.5 7.5 0 1 0 -15 0zM52.25 82.81 a7.5 7.5 0 1 0 15 0 a7.5 7.5 0 1 0 -15 0zM-12.7 45.31 a7.5 7.5 0 1 0 15 0 a7.5 7.5 0 1 0 -15 0zM-12.7 -29.69 a7.5 7.5 0 1 0 15 0 a7.5 7.5 0 1 0 -15 0zM117.2 270.31 a7.5 7.5 0 1 0 15 0 a7.5 7.5 0 1 0 -15 0zM182.16 307.81 a7.5 7.5 0 1 0 15 0 a7.5 7.5 0 1 0 -15 0zM182.16 382.81 a7.5 7.5 0 1 0 15 0 a7.5 7.5 0 1 0 -15 0zM117.2 420.31 a7.5 7.5 0 1 0 15 0 a7.5 7.5 0 1 0 -15 0zM52.25 382.81 a7.5 7.5 0 1 0 15 0 a7.5 7.5 0 1 0 -15 0zM52.25 307.81 a7.5 7.5 0 1 0 15 0 a7.5 7.5 0 1 0 -15 0zM117.2 495.31 a7.5 7.5 0 1 0 15 0 a7.5 7.5 0 1 0 -15 0zM52.25 532.81 a7.5 7.5 0 1 0 15 0 a7.5 7.5 0 1 0 -15 0zM-12.7 495.31 a7.5 7.5 0 1 0 15 0 a7.5 7.5 0 1 0 -15 0zM-12.7 420.31 a7.5 7.5 0 1 0 15 0 a7.5 7.5 0 1 0 -15 0zM182.16 -67.19 a7.5 7.5 0 1 0 15 0 a7.5 7.5 0 1 0 -15 0zM247.11 -29.69 a7.5 7.5 0 1 0 15 0 a7.5 7.5 0 1 0 -15 0zM247.11 45.31 a7.5 7.5 0 1 0 15 0 a7.5 7.5 0 1 0 -15 0zM182.16 82.81 a7.5 7.5 0 1 0 15 0 a7.5 7.5 0 1 0 -15 0zM182.16 157.81 a7.5 7.5 0 1 0 15 0 a7.5 7.5 0 1 0 -15 0zM247.11 195.31 a7.5 7.5 0 1 0 15 0 a7.5 7.5 0 1 0 -15 0zM247.11 270.31 a7.5 7.5 0 1 0 15 0 a7.5 7.5 0 1 0 -15 0zM117.2 195.31 a7.5 7.5 0 1 0 15 0 a7.5 7.5 0 1 0 -15 0zM247.11 420.31 a7.5 7.5 0 1 0 15 0 a7.5 7.5 0 1 0 -15 0zM247.11 495.31 a7.5 7.5 0 1 0 15 0 a7.5 7.5 0 1 0 -15 0zM182.16 532.81 a7.5 7.5 0 1 0 15 0 a7.5 7.5 0 1 0 -15 0zM377.02 270.31 a7.5 7.5 0 1 0 15 0 a7.5 7.5 0 1 0 -15 0zM441.97 307.81 a7.5 7.5 0 1 0 15 0 a7.5 7.5 0 1 0 -15 0zM441.97 382.81 a7.5 7.5 0 1 0 15 0 a7.5 7.5 0 1 0 -15 0zM377.02 420.31 a7.5 7.5 0 1 0 15 0 a7.5 7.5 0 1 0 -15 0zM312.06 382.81 a7.5 7.5 0 1 0 15 0 a7.5 7.5 0 1 0 -15 0zM312.06 307.81 a7.5 7.5 0 1 0 15 0 a7.5 7.5 0 1 0 -15 0zM377.02 495.31 a7.5 7.5 0 1 0 15 0 a7.5 7.5 0 1 0 -15 0zM312.06 532.81 a7.5 7.5 0 1 0 15 0 a7.5 7.5 0 1 0 -15 0zM441.97 532.81 a7.5 7.5 0 1 0 15 0 a7.5 7.5 0 1 0 -15 0zM441.97 607.81 a7.5 7.5 0 1 0 15 0 a7.5 7.5 0 1 0 -15 0zM377.02 645.31 a7.5 7.5 0 1 0 15 0 a7.5 7.5 0 1 0 -15 0zM312.06 607.81 a7.5 7.5 0 1 0 15 0 a7.5 7.5 0 1 0 -15 0zM506.93 45.31 a7.5 7.5 0 1 0 15 0 a7.5 7.5 0 1 0 -15 0zM571.88 82.81 a7.5 7.5 0 1 0 15 0 a7.5 7.5 0 1 0 -15 0zM571.88 157.81 a7.5 7.5 0 1 0 15 0 a7.5 7.5 0 1 0 -15 0zM506.93 195.31 a7.5 7.5 0 1 0 15 0 a7.5 7.5 0 1 0 -15 0zM441.97 157.81 a7.5 7.5 0 1 0 15 0 a7.5 7.5 0 1 0 -15 0zM441.97 82.81 a7.5 7.5 0 1 0 15 0 a7.5 7.5 0 1 0 -15 0zM506.93 270.31 a7.5 7.5 0 1 0 15 0 a7.5 7.5 0 1 0 -15 0zM377.02 195.31 a7.5 7.5 0 1 0 15 0 a7.5 7.5 0 1 0 -15 0zM571.88 307.81 a7.5 7.5 0 1 0 15 0 a7.5 7.5 0 1 0 -15 0zM571.88 382.81 a7.5 7.5 0 1 0 15 0 a7.5 7.5 0 1 0 -15 0zM506.93 420.31 a7.5 7.5 0 1 0 15 0 a7.5 7.5 0 1 0 -15 0zM506.93 495.31 a7.5 7.5 0 1 0 15 0 a7.5 7.5 0 1 0 -15 0zM636.83 45.31 a7.5 7.5 0 1 0 15 0 a7.5 7.5 0 1 0 -15 0zM701.79 82.81 a7.5 7.5 0 1 0 15 0 a7.5 7.5 0 1 0 -15 0zM701.79 157.81 a7.5 7.5 0 1 0 15 0 a7.5 7.5 0 1 0 -15 0zM636.83 195.31 a7.5 7.5 0 1 0 15 0 a7.5 7.5 0 1 0 -15 0zM636.83 270.31 a7.5 7.5 0 1 0 15 0 a7.5 7.5 0 1 0 -15 0zM701.79 307.81 a7.5 7.5 0 1 0 15 0 a7.5 7.5 0 1 0 -15 0zM701.79 382.81 a7.5 7.5 0 1 0 15 0 a7.5 7.5 0 1 0 -15 0zM636.83 420.31 a7.5 7.5 0 1 0 15 0 a7.5 7.5 0 1 0 -15 0zM636.83 495.31 a7.5 7.5 0 1 0 15 0 a7.5 7.5 0 1 0 -15 0zM571.88 532.81 a7.5 7.5 0 1 0 15 0 a7.5 7.5 0 1 0 -15 0zM701.79 532.81 a7.5 7.5 0 1 0 15 0 a7.5 7.5 0 1 0 -15 0zM701.79 607.81 a7.5 7.5 0 1 0 15 0 a7.5 7.5 0 1 0 -15 0zM636.83 645.31 a7.5 7.5 0 1 0 15 0 a7.5 7.5 0 1 0 -15 0zM571.88 607.81 a7.5 7.5 0 1 0 15 0 a7.5 7.5 0 1 0 -15 0zM701.79 -67.19 a7.5 7.5 0 1 0 15 0 a7.5 7.5 0 1 0 -15 0zM766.74 -29.69 a7.5 7.5 0 1 0 15 0 a7.5 7.5 0 1 0 -15 0zM766.74 45.31 a7.5 7.5 0 1 0 15 0 a7.5 7.5 0 1 0 -15 0zM636.83 -29.69 a7.5 7.5 0 1 0 15 0 a7.5 7.5 0 1 0 -15 0zM831.7 82.81 a7.5 7.5 0 1 0 15 0 a7.5 7.5 0 1 0 -15 0zM831.7 157.81 a7.5 7.5 0 1 0 15 0 a7.5 7.5 0 1 0 -15 0zM766.74 195.31 a7.5 7.5 0 1 0 15 0 a7.5 7.5 0 1 0 -15 0zM766.74 420.31 a7.5 7.5 0 1 0 15 0 a7.5 7.5 0 1 0 -15 0zM766.74 495.31 a7.5 7.5 0 1 0 15 0 a7.5 7.5 0 1 0 -15 0zM831.7 532.81 a7.5 7.5 0 1 0 15 0 a7.5 7.5 0 1 0 -15 0zM831.7 607.81 a7.5 7.5 0 1 0 15 0 a7.5 7.5 0 1 0 -15 0zM766.74 645.31 a7.5 7.5 0 1 0 15 0 a7.5 7.5 0 1 0 -15 0zM831.69 -67.19 a7.5 7.5 0 1 0 15 0 a7.5 7.5 0 1 0 -15 0zM896.65 -29.69 a7.5 7.5 0 1 0 15 0 a7.5 7.5 0 1 0 -15 0zM896.65 45.31 a7.5 7.5 0 1 0 15 0 a7.5 7.5 0 1 0 -15 0zM831.69 82.81 a7.5 7.5 0 1 0 15 0 a7.5 7.5 0 1 0 -15 0zM961.6 82.81 a7.5 7.5 0 1 0 15 0 a7.5 7.5 0 1 0 -15 0zM961.6 157.81 a7.5 7.5 0 1 0 15 0 a7.5 7.5 0 1 0 -15 0zM896.65 195.31 a7.5 7.5 0 1 0 15 0 a7.5 7.5 0 1 0 -15 0zM831.69 157.81 a7.5 7.5 0 1 0 15 0 a7.5 7.5 0 1 0 -15 0zM961.6 -67.19 a7.5 7.5 0 1 0 15 0 a7.5 7.5 0 1 0 -15 0zM1026.56 -29.69 a7.5 7.5 0 1 0 15 0 a7.5 7.5 0 1 0 -15 0zM1026.56 45.31 a7.5 7.5 0 1 0 15 0 a7.5 7.5 0 1 0 -15 0zM1026.56 195.31 a7.5 7.5 0 1 0 15 0 a7.5 7.5 0 1 0 -15 0zM1026.56 270.31 a7.5 7.5 0 1 0 15 0 a7.5 7.5 0 1 0 -15 0zM961.6 307.81 a7.5 7.5 0 1 0 15 0 a7.5 7.5 0 1 0 -15 0zM896.65 270.31 a7.5 7.5 0 1 0 15 0 a7.5 7.5 0 1 0 -15 0zM1091.51 307.81 a7.5 7.5 0 1 0 15 0 a7.5 7.5 0 1 0 -15 0zM1091.51 382.81 a7.5 7.5 0 1 0 15 0 a7.5 7.5 0 1 0 -15 0zM1026.56 420.31 a7.5 7.5 0 1 0 15 0 a7.5 7.5 0 1 0 -15 0zM961.6 382.81 a7.5 7.5 0 1 0 15 0 a7.5 7.5 0 1 0 -15 0zM1026.56 495.31 a7.5 7.5 0 1 0 15 0 a7.5 7.5 0 1 0 -15 0zM961.6 532.81 a7.5 7.5 0 1 0 15 0 a7.5 7.5 0 1 0 -15 0zM896.65 495.31 a7.5 7.5 0 1 0 15 0 a7.5 7.5 0 1 0 -15 0zM896.65 420.31 a7.5 7.5 0 1 0 15 0 a7.5 7.5 0 1 0 -15 0zM1091.51 -67.19 a7.5 7.5 0 1 0 15 0 a7.5 7.5 0 1 0 -15 0zM1156.46 -29.69 a7.5 7.5 0 1 0 15 0 a7.5 7.5 0 1 0 -15 0zM1156.46 45.31 a7.5 7.5 0 1 0 15 0 a7.5 7.5 0 1 0 -15 0zM1091.51 82.81 a7.5 7.5 0 1 0 15 0 a7.5 7.5 0 1 0 -15 0zM1091.51 157.81 a7.5 7.5 0 1 0 15 0 a7.5 7.5 0 1 0 -15 0zM1156.46 195.31 a7.5 7.5 0 1 0 15 0 a7.5 7.5 0 1 0 -15 0zM1156.46 270.31 a7.5 7.5 0 1 0 15 0 a7.5 7.5 0 1 0 -15 0zM1156.46 420.31 a7.5 7.5 0 1 0 15 0 a7.5 7.5 0 1 0 -15 0zM1156.46 495.31 a7.5 7.5 0 1 0 15 0 a7.5 7.5 0 1 0 -15 0zM1091.51 532.81 a7.5 7.5 0 1 0 15 0 a7.5 7.5 0 1 0 -15 0zM1221.42 -67.19 a7.5 7.5 0 1 0 15 0 a7.5 7.5 0 1 0 -15 0zM1286.37 -29.69 a7.5 7.5 0 1 0 15 0 a7.5 7.5 0 1 0 -15 0zM1286.37 45.31 a7.5 7.5 0 1 0 15 0 a7.5 7.5 0 1 0 -15 0zM1221.42 82.81 a7.5 7.5 0 1 0 15 0 a7.5 7.5 0 1 0 -15 0zM1416.28 45.31 a7.5 7.5 0 1 0 15 0 a7.5 7.5 0 1 0 -15 0zM1481.23 82.81 a7.5 7.5 0 1 0 15 0 a7.5 7.5 0 1 0 -15 0zM1481.23 157.81 a7.5 7.5 0 1 0 15 0 a7.5 7.5 0 1 0 -15 0zM1416.28 195.31 a7.5 7.5 0 1 0 15 0 a7.5 7.5 0 1 0 -15 0zM1351.33 157.81 a7.5 7.5 0 1 0 15 0 a7.5 7.5 0 1 0 -15 0zM1351.33 82.81 a7.5 7.5 0 1 0 15 0 a7.5 7.5 0 1 0 -15 0zM1546.19 195.31 a7.5 7.5 0 1 0 15 0 a7.5 7.5 0 1 0 -15 0zM1546.19 270.31 a7.5 7.5 0 1 0 15 0 a7.5 7.5 0 1 0 -15 0zM1481.23 307.81 a7.5 7.5 0 1 0 15 0 a7.5 7.5 0 1 0 -15 0zM1416.28 270.31 a7.5 7.5 0 1 0 15 0 a7.5 7.5 0 1 0 -15 0zM1481.23 382.81 a7.5 7.5 0 1 0 15 0 a7.5 7.5 0 1 0 -15 0zM1546.19 420.31 a7.5 7.5 0 1 0 15 0 a7.5 7.5 0 1 0 -15 0zM1546.19 495.31 a7.5 7.5 0 1 0 15 0 a7.5 7.5 0 1 0 -15 0zM1481.23 532.81 a7.5 7.5 0 1 0 15 0 a7.5 7.5 0 1 0 -15 0zM1416.28 495.31 a7.5 7.5 0 1 0 15 0 a7.5 7.5 0 1 0 -15 0zM1416.28 420.31 a7.5 7.5 0 1 0 15 0 a7.5 7.5 0 1 0 -15 0zM1611.14 532.81 a7.5 7.5 0 1 0 15 0 a7.5 7.5 0 1 0 -15 0zM1611.14 607.81 a7.5 7.5 0 1 0 15 0 a7.5 7.5 0 1 0 -15 0zM1546.19 645.31 a7.5 7.5 0 1 0 15 0 a7.5 7.5 0 1 0 -15 0zM1481.23 607.81 a7.5 7.5 0 1 0 15 0 a7.5 7.5 0 1 0 -15 0z" fill="rgba(0, 203, 255, 0.36)"></path><path d="M35.38 125.38L78.68 150.38L78.68 200.38L35.38 225.38L-7.92 200.38L-7.92 150.38zM35.38 275.38L78.68 300.38L78.68 350.38L35.38 375.38L-7.92 350.38L-7.92 300.38zM78.68 350.38L121.99 375.38L121.99 425.38L78.68 450.38L35.38 425.38L35.38 375.38zM35.38 425.38L78.68 450.38L78.68 500.38L35.38 525.38L-7.92 500.38L-7.92 450.38zM165.29 350.38L208.59 375.38L208.59 425.38L165.29 450.38L121.99 425.38L121.99 375.38zM208.59 125.38L251.89 150.38L251.89 200.38L208.59 225.38L165.29 200.38L165.29 150.38zM208.59 425.38L251.89 450.38L251.89 500.38L208.59 525.38L165.29 500.38L165.29 450.38zM295.19 125.38L338.5 150.38L338.5 200.38L295.19 225.38L251.89 200.38L251.89 150.38zM295.19 275.38L338.5 300.38L338.5 350.38L295.19 375.38L251.89 350.38L251.89 300.38zM338.5 350.38L381.8 375.38L381.8 425.38L338.5 450.38L295.19 425.38L295.19 375.38zM425.1 50.38L468.41 75.38L468.41 125.38L425.1 150.38L381.8 125.38L381.8 75.38zM425.1 350.38L468.41 375.38L468.41 425.38L425.1 450.38L381.8 425.38L381.8 375.38zM381.8 425.38L425.1 450.38L425.1 500.38L381.8 525.38L338.5 500.38L338.5 450.38zM468.41 125.38L511.71 150.38L511.71 200.38L468.41 225.38L425.1 200.38L425.1 150.38zM511.71 350.38L555.01 375.38L555.01 425.38L511.71 450.38L468.41 425.38L468.41 375.38zM555.01 125.38L598.31 150.38L598.31 200.38L555.01 225.38L511.71 200.38L511.71 150.38zM598.31 200.38L641.62 225.38L641.62 275.38L598.31 300.38L555.01 275.38L555.01 225.38zM598.31 350.38L641.62 375.38L641.62 425.38L598.31 450.38L555.01 425.38L555.01 375.38zM555.01 425.38L598.31 450.38L598.31 500.38L555.01 525.38L511.71 500.38L511.71 450.38zM598.31 500.38L641.62 525.38L641.62 575.38L598.31 600.38L555.01 575.38L555.01 525.38zM641.62 -24.62L684.92 0.38L684.92 50.38L641.62 75.38L598.31 50.38L598.31 0.38zM641.62 125.38L684.92 150.38L684.92 200.38L641.62 225.38L598.31 200.38L598.31 150.38zM641.62 275.38L684.92 300.38L684.92 350.38L641.62 375.38L598.31 350.38L598.31 300.38zM641.62 425.38L684.92 450.38L684.92 500.38L641.62 525.38L598.31 500.38L598.31 450.38zM728.22 125.38L771.52 150.38L771.52 200.38L728.22 225.38L684.92 200.38L684.92 150.38zM728.22 275.38L771.52 300.38L771.52 350.38L728.22 375.38L684.92 350.38L684.92 300.38zM771.52 500.38L814.83 525.38L814.83 575.38L771.52 600.38L728.22 575.38L728.22 525.38zM858.13 200.38L901.43 225.38L901.43 275.38L858.13 300.38L814.83 275.38L814.83 225.38zM814.83 275.38L858.13 300.38L858.13 350.38L814.83 375.38L771.52 350.38L771.52 300.38zM814.83 425.38L858.13 450.38L858.13 500.38L814.83 525.38L771.52 500.38L771.52 450.38zM858.13 500.38L901.43 525.38L901.43 575.38L858.13 600.38L814.83 575.38L814.83 525.38zM901.43 -24.62L944.73 0.38L944.73 50.38L901.43 75.38L858.13 50.38L858.13 0.38zM944.73 200.38L988.04 225.38L988.04 275.38L944.73 300.38L901.43 275.38L901.43 225.38zM901.43 275.38L944.73 300.38L944.73 350.38L901.43 375.38L858.13 350.38L858.13 300.38zM901.43 425.38L944.73 450.38L944.73 500.38L901.43 525.38L858.13 500.38L858.13 450.38zM944.73 500.38L988.04 525.38L988.04 575.38L944.73 600.38L901.43 575.38L901.43 525.38zM1074.64 125.38L1117.94 150.38L1117.94 200.38L1074.64 225.38L1031.34 200.38L1031.34 150.38zM1117.94 200.38L1161.25 225.38L1161.25 275.38L1117.94 300.38L1074.64 275.38L1074.64 225.38zM1161.25 125.38L1204.55 150.38L1204.55 200.38L1161.25 225.38L1117.94 200.38L1117.94 150.38zM1291.15 50.38L1334.46 75.38L1334.46 125.38L1291.15 150.38L1247.85 125.38L1247.85 75.38zM1247.85 125.38L1291.15 150.38L1291.15 200.38L1247.85 225.38L1204.55 200.38L1204.55 150.38zM1247.85 425.38L1291.15 450.38L1291.15 500.38L1247.85 525.38L1204.55 500.38L1204.55 450.38zM1334.46 -24.62L1377.76 0.38L1377.76 50.38L1334.46 75.38L1291.15 50.38L1291.15 0.38zM1377.76 50.38L1421.06 75.38L1421.06 125.38L1377.76 150.38L1334.46 125.38L1334.46 75.38zM1377.76 200.38L1421.06 225.38L1421.06 275.38L1377.76 300.38L1334.46 275.38L1334.46 225.38zM1377.76 500.38L1421.06 525.38L1421.06 575.38L1377.76 600.38L1334.46 575.38L1334.46 525.38zM1421.06 275.38L1464.36 300.38L1464.36 350.38L1421.06 375.38L1377.76 350.38L1377.76 300.38zM1464.36 500.38L1507.67 525.38L1507.67 575.38L1464.36 600.38L1421.06 575.38L1421.06 525.38z" stroke="rgba(1, 117, 117, 0.51)" stroke-width="2"></path></g><defs><mask id="SvgjsMask1005"><rect width="1440" height="560" fill="#ffffff"></rect></mask></defs></svg>