<svg xmlns="http://www.w3.org/2000/svg" version="1.1" xmlns:xlink="http://www.w3.org/1999/xlink" xmlns:svgjs="http://svgjs.dev/svgjs" width="1440" height="560" preserveAspectRatio="none" viewBox="0 0 1440 560"><g mask="url(&quot;#SvgjsMask1021&quot;)" fill="none"><rect width="1440" height="560" x="0" y="0" fill="#0f2626"></rect><path d="M1488 560L0 560 L0 328.36Q60.25 268.62, 120 328.87Q187.63 276.5, 240 344.13Q272.72 256.85, 360 289.56Q437.83 247.39, 480 325.23Q551.76 277, 600 348.76Q641.69 318.45, 672 360.14Q696.06 312.2, 744 336.26Q773.31 293.57, 816 322.89Q878.76 313.65, 888 376.41Q910.25 326.67, 960 348.92Q984.32 301.24, 1032 325.55Q1073.86 295.41, 1104 337.27Q1147.16 260.44, 1224 303.6Q1307.47 267.07, 1344 350.54Q1364.69 299.23, 1416 319.92Q1432.73 264.65, 1488 281.39z" fill="rgba(3, 72, 65, 1)"></path><path d="M1536 560L0 560 L0 364.76Q49.14 341.9, 72 391.05Q159.06 358.11, 192 445.16Q209.98 391.14, 264 409.12Q311.6 336.72, 384 384.32Q430.83 311.15, 504 357.98Q603.24 337.22, 624 436.46Q638.95 379.41, 696 394.36Q716.81 343.18, 768 363.99Q797.98 321.97, 840 351.94Q941.46 333.4, 960 434.86Q989.02 343.88, 1080 372.91Q1109.29 330.2, 1152 359.48Q1206.72 342.2, 1224 396.92Q1246.93 347.86, 1296 370.79Q1363.3 318.09, 1416 385.38Q1504.24 353.63, 1536 441.87z" fill="rgba(4, 68, 61, 1)"></path><path d="M1464 560L0 560 L0 476.42Q69.27 425.69, 120 494.96Q167.03 469.99, 192 517.01Q222.48 427.49, 312 457.97Q357.41 383.38, 432 428.8Q491.25 416.05, 504 475.3Q574.01 425.31, 624 495.33Q636.5 435.83, 696 448.33Q769.45 401.78, 816 475.23Q862.91 450.14, 888 497.06Q910.22 399.28, 1008 421.5Q1077.07 370.56, 1128 439.63Q1198.1 437.73, 1200 507.82Q1221.6 457.41, 1272 479.01Q1325.9 412.91, 1392 466.81Q1414.35 417.16, 1464 439.51z" fill="rgba(8, 83, 75, 1)"></path><path d="M1464 560L0 560 L0 545.9Q52.69 526.59, 72 579.27Q121.04 508.31, 192 557.34Q204.8 498.14, 264 510.95Q314.25 441.2, 384 491.46Q445.92 481.38, 456 543.3Q508.28 523.58, 528 575.86Q577.31 505.17, 648 554.48Q699.09 485.57, 768 536.65Q818.65 467.3, 888 517.95Q941.79 451.75, 1008 505.54Q1073.6 499.13, 1080 564.73Q1151.42 516.15, 1200 587.57Q1217.83 533.39, 1272 551.22Q1286.95 494.17, 1344 509.13Q1395.03 440.16, 1464 491.19z" fill="#0f2626"></path></g><defs><mask id="SvgjsMask1021"><rect width="1440" height="560" fill="#ffffff"></rect></mask></defs></svg>