<?xml version="1.0" standalone="no"?>
<!DOCTYPE svg PUBLIC "-//W3C//DTD SVG 20010904//EN"
 "http://www.w3.org/TR/2001/REC-SVG-20010904/DTD/svg10.dtd">
<svg version="1.0" xmlns="http://www.w3.org/2000/svg"
 width="493.000000pt" height="197.000000pt" viewBox="0 0 493.000000 197.000000"
 preserveAspectRatio="xMidYMid meet">

<g transform="translate(0.000000,197.000000) scale(0.100000,-0.100000)"
fill="#000000" stroke="none">
<path d="M1440 835 l0 -365 65 0 65 0 0 365 0 365 -65 0 -65 0 0 -365z"/>
<path d="M1665 1188 c-3 -7 -4 -171 -3 -363 l3 -350 57 -3 58 -3 2 188 3 187
87 -184 87 -185 50 -3 51 -3 0 124 c0 68 -3 232 -7 365 l-6 242 -53 0 -54 0
-2 -202 -3 -202 -85 200 -86 199 -47 3 c-32 2 -49 -1 -52 -10z"/>
<path d="M2150 835 l0 -365 60 0 60 0 0 128 c0 117 2 129 23 155 l22 28 70
-155 70 -155 69 -1 c51 0 67 3 63 13 -3 6 -49 105 -102 218 l-97 206 69 109
c38 60 79 126 92 147 l23 37 -64 0 -63 0 -80 -124 -80 -124 -5 121 -5 122 -62
3 -63 3 0 -366z"/>
</g>
</svg>
