<?xml version="1.0" standalone="no"?>
<!DOCTYPE svg PUBLIC "-//W3C//DTD SVG 20010904//EN"
 "http://www.w3.org/TR/2001/REC-SVG-20010904/DTD/svg10.dtd">
<svg version="1.0" xmlns="http://www.w3.org/2000/svg"
 width="1920.000000pt" height="1920.000000pt" viewBox="0 0 1920.000000 1920.000000"
 preserveAspectRatio="xMidYMid meet">

<g transform="translate(0.000000,1920.000000) scale(0.100000,-0.100000)"
fill="#000000" stroke="none">
<path d="M0 9600 l0 -9600 9600 0 9600 0 0 9600 0 9600 -9600 0 -9600 0 0
-9600z m13841 5869 c101 -6 185 -12 187 -13 1 -2 -27 -34 -63 -71 -163 -169
-288 -388 -595 -1044 -228 -489 -342 -708 -499 -956 -208 -330 -468 -617 -686
-757 -92 -60 -377 -220 -815 -458 -400 -217 -627 -346 -636 -362 -34 -54 1024
341 1424 532 67 32 122 55 122 51 0 -27 -504 -922 -641 -1138 -176 -278 -338
-482 -535 -673 -356 -347 -747 -556 -1454 -780 -107 -34 -213 -68 -235 -75
-40 -13 -40 -13 -9 -14 17 -1 71 6 120 14 301 52 793 207 1289 406 121 48 221
86 223 84 6 -6 -194 -313 -311 -478 -455 -637 -930 -1077 -1494 -1381 -174
-94 -331 -164 -688 -308 -471 -190 -636 -274 -827 -419 -66 -51 -79 -57 -73
-38 47 154 334 850 496 1204 117 257 424 859 576 1130 586 1046 1269 2011
2037 2875 477 536 1010 1054 1456 1413 154 123 176 145 85 82 -523 -362 -1246
-981 -1665 -1426 -220 -233 -248 -264 -366 -399 -1021 -1168 -1977 -2725
-2729 -4445 -337 -771 -650 -1654 -844 -2379 l-51 -190 -52 -45 c-225 -194
-344 -354 -449 -605 -24 -58 -47 -106 -51 -106 -11 0 -68 192 -95 320 -17 82
-26 163 -30 280 l-6 166 62 148 c100 241 197 455 416 921 254 539 375 806 470
1037 67 160 73 182 69 230 -72 860 -57 1120 92 1567 64 191 254 621 275 621
13 0 18 -48 29 -250 11 -204 30 -348 54 -403 13 -29 14 -20 15 123 1 86 8 212
16 280 157 1278 1249 3262 2104 3822 40 26 77 48 81 48 4 0 -8 -44 -27 -97
-80 -230 -132 -486 -133 -653 l0 -75 68 125 c307 561 789 1124 1341 1565 896
714 1909 1056 2952 994z m-421 -9353 c0 -2 -39 -31 -87 -63 -357 -243 -749
-377 -1263 -434 -168 -19 -644 -16 -860 5 -366 35 -713 93 -1314 217 -368 77
-401 79 -413 31 -7 -28 -1 -40 91 -197 147 -252 103 -463 -119 -565 -86 -40
-165 -54 -290 -53 -161 1 -334 43 -785 188 -269 87 -418 125 -489 125 -64 0
-81 -11 -81 -52 0 -35 15 -64 93 -187 33 -52 76 -128 96 -170 32 -67 36 -85
36 -151 0 -86 -13 -115 -74 -176 -129 -129 -390 -191 -771 -181 -288 7 -504
46 -705 124 -85 34 -231 111 -223 118 2 2 44 -12 93 -32 107 -43 307 -94 470
-119 94 -15 175 -19 370 -19 227 0 258 2 339 23 161 41 252 106 275 198 21 82
-14 172 -129 334 -153 215 -166 310 -53 384 61 40 143 57 283 57 194 1 339
-25 840 -146 307 -74 370 -86 462 -88 53 -2 72 2 94 19 64 47 86 112 65 189
-6 22 -39 90 -74 150 -109 191 -121 247 -67 309 48 54 111 71 260 69 151 -1
251 -18 693 -117 648 -145 910 -190 1282 -217 196 -14 584 -6 745 16 416 56
771 170 1091 350 122 69 119 67 119 61z"/>
</g>
</svg>
